<mxfile host="app.diagrams.net" agent="Mozilla/5.0 (Macintosh; Intel Mac OS X 10_15_7) AppleWebKit/537.36 (KHTML, like Gecko) Chrome/129.0.0.0 Safari/537.36" version="24.7.17">
  <diagram id="UjZvlFdr8ANQwG_hwntN" name="Page-1">
    <mxGraphModel dx="2069" dy="734" grid="1" gridSize="10" guides="1" tooltips="1" connect="1" arrows="1" fold="1" page="1" pageScale="1" pageWidth="827" pageHeight="1169" math="0" shadow="0">
      <root>
        <mxCell id="0" />
        <mxCell id="1" parent="0" />
        <mxCell id="BTk8QfqqS4kLnmVZK8dJ-20" value="" style="rounded=0;whiteSpace=wrap;html=1;" vertex="1" parent="1">
          <mxGeometry x="-653" y="630" width="183" height="120" as="geometry" />
        </mxCell>
        <mxCell id="BTk8QfqqS4kLnmVZK8dJ-1" value="&lt;span style=&quot;color: rgba(0, 0, 0, 0); font-family: monospace; font-size: 0px; text-wrap: nowrap;&quot;&gt;%3CmxGraphModel%3E%3Croot%3E%3CmxCell%20id%3D%220%22%2F%3E%3CmxCell%20id%3D%221%22%20parent%3D%220%22%2F%3E%3CmxCell%20id%3D%222%22%20value%3D%22%22%20style%3D%22dashed%3D0%3Bhtml%3D1%3Bshape%3Dmxgraph.aws3.virtual_private_cloud%3BfillColor%3D%23F58536%3BgradientColor%3Dnone%3Bdashed%3D0%3B%22%20vertex%3D%221%22%20parent%3D%221%22%3E%3CmxGeometry%20x%3D%22280%22%20y%3D%22220%22%20width%3D%2252%22%20height%3D%2236%22%20as%3D%22geometry%22%2F%3E%3C%2FmxCell%3E%3C%2Froot%3E%3C%2FmxGraphModel%3E&lt;/span&gt;" style="points=[[0,0],[0.25,0],[0.5,0],[0.75,0],[1,0],[1,0.25],[1,0.5],[1,0.75],[1,1],[0.75,1],[0.5,1],[0.25,1],[0,1],[0,0.75],[0,0.5],[0,0.25]];outlineConnect=0;gradientColor=none;html=1;whiteSpace=wrap;fontSize=12;fontStyle=0;container=1;pointerEvents=0;collapsible=0;recursiveResize=0;shape=mxgraph.aws4.group;grIcon=mxgraph.aws4.group_region;strokeColor=#00A4A6;fillColor=none;verticalAlign=top;align=left;spacingLeft=30;fontColor=#147EBA;dashed=1;strokeWidth=5;" vertex="1" parent="1">
          <mxGeometry x="-260" y="115" width="780" height="485" as="geometry" />
        </mxCell>
        <mxCell id="j0ipsfvN6_BDUDZTLK3N-4" value="" style="rounded=1;arcSize=10;dashed=0;fillColor=none;gradientColor=none;strokeWidth=2;" parent="BTk8QfqqS4kLnmVZK8dJ-1" vertex="1">
          <mxGeometry x="610" y="35" width="130" height="125" as="geometry" />
        </mxCell>
        <mxCell id="BTk8QfqqS4kLnmVZK8dJ-31" value="" style="rounded=0;whiteSpace=wrap;html=1;" vertex="1" parent="BTk8QfqqS4kLnmVZK8dJ-1">
          <mxGeometry x="30" y="150" width="105" height="210" as="geometry" />
        </mxCell>
        <mxCell id="BTk8QfqqS4kLnmVZK8dJ-2" value="" style="sketch=0;outlineConnect=0;fontColor=#232F3E;gradientColor=none;fillColor=#C925D1;strokeColor=none;dashed=0;verticalLabelPosition=bottom;verticalAlign=top;align=center;html=1;fontSize=12;fontStyle=0;aspect=fixed;pointerEvents=1;shape=mxgraph.aws4.rds_instance;" vertex="1" parent="BTk8QfqqS4kLnmVZK8dJ-1">
          <mxGeometry x="630" y="65" width="78" height="78" as="geometry" />
        </mxCell>
        <mxCell id="BTk8QfqqS4kLnmVZK8dJ-5" value="" style="edgeStyle=orthogonalEdgeStyle;html=1;endArrow=block;elbow=vertical;startArrow=none;endFill=1;strokeColor=#545B64;rounded=0;entryX=0.026;entryY=0.23;entryDx=0;entryDy=0;entryPerimeter=0;" edge="1" parent="BTk8QfqqS4kLnmVZK8dJ-1" source="j0ipsfvN6_BDUDZTLK3N-9" target="BTk8QfqqS4kLnmVZK8dJ-2">
          <mxGeometry width="100" relative="1" as="geometry">
            <mxPoint x="390" y="215" as="sourcePoint" />
            <mxPoint x="490" y="215" as="targetPoint" />
          </mxGeometry>
        </mxCell>
        <mxCell id="BTk8QfqqS4kLnmVZK8dJ-24" value="Amazon S3" style="sketch=0;outlineConnect=0;fontColor=#232F3E;gradientColor=none;fillColor=#7AA116;strokeColor=none;dashed=0;verticalLabelPosition=bottom;verticalAlign=top;align=center;html=1;fontSize=12;fontStyle=0;aspect=fixed;pointerEvents=1;shape=mxgraph.aws4.bucket_with_objects;" vertex="1" parent="BTk8QfqqS4kLnmVZK8dJ-1">
          <mxGeometry x="62.75" y="285" width="47.25" height="49.14" as="geometry" />
        </mxCell>
        <mxCell id="BTk8QfqqS4kLnmVZK8dJ-25" value="configs" style="text;html=1;align=center;verticalAlign=middle;whiteSpace=wrap;rounded=0;perimeterSpacing=1;fillColor=#ffe6cc;strokeColor=#d79b00;" vertex="1" parent="BTk8QfqqS4kLnmVZK8dJ-1">
          <mxGeometry x="53.25" y="204.5" width="60" height="30" as="geometry" />
        </mxCell>
        <mxCell id="BTk8QfqqS4kLnmVZK8dJ-26" value="schema" style="text;html=1;align=center;verticalAlign=middle;whiteSpace=wrap;rounded=0;perimeterSpacing=1;fillColor=#d5e8d4;strokeColor=#82B366;" vertex="1" parent="BTk8QfqqS4kLnmVZK8dJ-1">
          <mxGeometry x="52.25" y="167.5" width="60" height="22.5" as="geometry" />
        </mxCell>
        <mxCell id="BTk8QfqqS4kLnmVZK8dJ-39" value="" style="edgeStyle=orthogonalEdgeStyle;rounded=0;orthogonalLoop=1;jettySize=auto;html=1;entryX=0;entryY=0.5;entryDx=0;entryDy=0;entryPerimeter=0;" edge="1" parent="BTk8QfqqS4kLnmVZK8dJ-1" source="BTk8QfqqS4kLnmVZK8dJ-28" target="j0ipsfvN6_BDUDZTLK3N-9">
          <mxGeometry relative="1" as="geometry">
            <mxPoint x="210" y="175" as="targetPoint" />
          </mxGeometry>
        </mxCell>
        <mxCell id="BTk8QfqqS4kLnmVZK8dJ-28" value="libs" style="text;html=1;align=center;verticalAlign=middle;whiteSpace=wrap;rounded=0;perimeterSpacing=1;fillColor=#f8cecc;strokeColor=#b85450;" vertex="1" parent="BTk8QfqqS4kLnmVZK8dJ-1">
          <mxGeometry x="52.25" y="255" width="67.75" height="20" as="geometry" />
        </mxCell>
        <mxCell id="j0ipsfvN6_BDUDZTLK3N-29" value="" style="sketch=0;points=[[0,0,0],[0.25,0,0],[0.5,0,0],[0.75,0,0],[1,0,0],[0,1,0],[0.25,1,0],[0.5,1,0],[0.75,1,0],[1,1,0],[0,0.25,0],[0,0.5,0],[0,0.75,0],[1,0.25,0],[1,0.5,0],[1,0.75,0]];outlineConnect=0;fontColor=#232F3E;fillColor=#8C4FFF;strokeColor=#ffffff;dashed=0;verticalLabelPosition=bottom;verticalAlign=top;align=center;html=1;fontSize=12;fontStyle=0;aspect=fixed;shape=mxgraph.aws4.resourceIcon;resIcon=mxgraph.aws4.glue;" parent="BTk8QfqqS4kLnmVZK8dJ-1" vertex="1">
          <mxGeometry x="220" y="290" width="80" height="80" as="geometry" />
        </mxCell>
        <mxCell id="BTk8QfqqS4kLnmVZK8dJ-49" style="edgeStyle=orthogonalEdgeStyle;rounded=0;orthogonalLoop=1;jettySize=auto;html=1;exitX=1;exitY=0.5;exitDx=0;exitDy=0;exitPerimeter=0;" edge="1" parent="BTk8QfqqS4kLnmVZK8dJ-1" source="j0ipsfvN6_BDUDZTLK3N-9" target="BTk8QfqqS4kLnmVZK8dJ-46">
          <mxGeometry relative="1" as="geometry" />
        </mxCell>
        <mxCell id="j0ipsfvN6_BDUDZTLK3N-9" value="" style="sketch=0;points=[[0,0,0],[0.25,0,0],[0.5,0,0],[0.75,0,0],[1,0,0],[0,1,0],[0.25,1,0],[0.5,1,0],[0.75,1,0],[1,1,0],[0,0.25,0],[0,0.5,0],[0,0.75,0],[1,0.25,0],[1,0.5,0],[1,0.75,0]];outlineConnect=0;fontColor=#232F3E;fillColor=#8C4FFF;strokeColor=#ffffff;dashed=0;verticalLabelPosition=bottom;verticalAlign=top;align=center;html=1;fontSize=12;fontStyle=0;aspect=fixed;shape=mxgraph.aws4.resourceIcon;resIcon=mxgraph.aws4.glue;" parent="BTk8QfqqS4kLnmVZK8dJ-1" vertex="1">
          <mxGeometry x="220" y="75" width="80" height="80" as="geometry" />
        </mxCell>
        <mxCell id="j0ipsfvN6_BDUDZTLK3N-5" value="" style="dashed=0;html=1;shape=mxgraph.aws3.virtual_private_cloud;fillColor=#F58536;gradientColor=none;dashed=0;" parent="BTk8QfqqS4kLnmVZK8dJ-1" vertex="1">
          <mxGeometry x="622" y="15.000000000000014" width="52" height="36" as="geometry" />
        </mxCell>
        <mxCell id="BTk8QfqqS4kLnmVZK8dJ-36" value="AWS Glue&amp;nbsp;&lt;div&gt;dynamodb_amplifier&lt;/div&gt;" style="text;html=1;align=center;verticalAlign=middle;resizable=0;points=[];autosize=1;strokeColor=none;fillColor=none;" vertex="1" parent="BTk8QfqqS4kLnmVZK8dJ-1">
          <mxGeometry x="195" y="370" width="130" height="40" as="geometry" />
        </mxCell>
        <mxCell id="BTk8QfqqS4kLnmVZK8dJ-33" value="AWS Glue&amp;nbsp;&lt;div&gt;&amp;nbsp;datagenerator.py&lt;/div&gt;" style="text;html=1;align=center;verticalAlign=middle;resizable=0;points=[];autosize=1;strokeColor=none;fillColor=none;" vertex="1" parent="BTk8QfqqS4kLnmVZK8dJ-1">
          <mxGeometry x="200" y="155" width="120" height="40" as="geometry" />
        </mxCell>
        <mxCell id="BTk8QfqqS4kLnmVZK8dJ-37" style="edgeStyle=orthogonalEdgeStyle;rounded=0;orthogonalLoop=1;jettySize=auto;html=1;exitX=1;exitY=0.5;exitDx=0;exitDy=0;entryX=0;entryY=0.5;entryDx=0;entryDy=0;entryPerimeter=0;" edge="1" parent="BTk8QfqqS4kLnmVZK8dJ-1" source="BTk8QfqqS4kLnmVZK8dJ-25" target="j0ipsfvN6_BDUDZTLK3N-9">
          <mxGeometry relative="1" as="geometry" />
        </mxCell>
        <mxCell id="BTk8QfqqS4kLnmVZK8dJ-38" style="edgeStyle=orthogonalEdgeStyle;rounded=0;orthogonalLoop=1;jettySize=auto;html=1;entryX=0;entryY=0.5;entryDx=0;entryDy=0;entryPerimeter=0;" edge="1" parent="BTk8QfqqS4kLnmVZK8dJ-1" source="BTk8QfqqS4kLnmVZK8dJ-26" target="j0ipsfvN6_BDUDZTLK3N-9">
          <mxGeometry relative="1" as="geometry" />
        </mxCell>
        <mxCell id="BTk8QfqqS4kLnmVZK8dJ-44" style="edgeStyle=orthogonalEdgeStyle;rounded=0;orthogonalLoop=1;jettySize=auto;html=1;exitX=1;exitY=0.75;exitDx=0;exitDy=0;entryX=0;entryY=0.5;entryDx=0;entryDy=0;entryPerimeter=0;" edge="1" parent="BTk8QfqqS4kLnmVZK8dJ-1" source="BTk8QfqqS4kLnmVZK8dJ-25" target="j0ipsfvN6_BDUDZTLK3N-29">
          <mxGeometry relative="1" as="geometry" />
        </mxCell>
        <mxCell id="BTk8QfqqS4kLnmVZK8dJ-45" style="edgeStyle=orthogonalEdgeStyle;rounded=0;orthogonalLoop=1;jettySize=auto;html=1;entryX=0;entryY=0.5;entryDx=0;entryDy=0;entryPerimeter=0;" edge="1" parent="BTk8QfqqS4kLnmVZK8dJ-1" source="BTk8QfqqS4kLnmVZK8dJ-28" target="j0ipsfvN6_BDUDZTLK3N-29">
          <mxGeometry relative="1" as="geometry" />
        </mxCell>
        <mxCell id="BTk8QfqqS4kLnmVZK8dJ-46" value="Amazon S3" style="sketch=0;outlineConnect=0;fontColor=#232F3E;gradientColor=none;fillColor=#7AA116;strokeColor=none;dashed=0;verticalLabelPosition=bottom;verticalAlign=top;align=center;html=1;fontSize=12;fontStyle=0;aspect=fixed;pointerEvents=1;shape=mxgraph.aws4.bucket_with_objects;" vertex="1" parent="BTk8QfqqS4kLnmVZK8dJ-1">
          <mxGeometry x="380" y="198.86" width="66.48" height="69.14" as="geometry" />
        </mxCell>
        <mxCell id="BTk8QfqqS4kLnmVZK8dJ-47" value="4" style="ellipse;whiteSpace=wrap;html=1;aspect=fixed;rotation=0;gradientColor=#223548;strokeColor=none;gradientDirection=east;fillColor=#5b738b;rounded=0;pointerEvents=0;fontFamily=Helvetica;fontSize=16;fontColor=#FFFFFF;spacingTop=4;spacingBottom=4;spacingLeft=4;spacingRight=4;points=[];fontStyle=1" vertex="1" parent="BTk8QfqqS4kLnmVZK8dJ-1">
          <mxGeometry x="165" y="75" width="30" height="30" as="geometry" />
        </mxCell>
        <mxCell id="BTk8QfqqS4kLnmVZK8dJ-50" style="edgeStyle=orthogonalEdgeStyle;rounded=0;orthogonalLoop=1;jettySize=auto;html=1;entryX=0.5;entryY=0;entryDx=0;entryDy=0;entryPerimeter=0;" edge="1" parent="BTk8QfqqS4kLnmVZK8dJ-1" source="BTk8QfqqS4kLnmVZK8dJ-46" target="j0ipsfvN6_BDUDZTLK3N-29">
          <mxGeometry relative="1" as="geometry" />
        </mxCell>
        <mxCell id="j0ipsfvN6_BDUDZTLK3N-10" value="" style="sketch=0;points=[[0,0,0],[0.25,0,0],[0.5,0,0],[0.75,0,0],[1,0,0],[0,1,0],[0.25,1,0],[0.5,1,0],[0.75,1,0],[1,1,0],[0,0.25,0],[0,0.5,0],[0,0.75,0],[1,0.25,0],[1,0.5,0],[1,0.75,0]];outlineConnect=0;fontColor=#232F3E;fillColor=#C925D1;strokeColor=#ffffff;dashed=0;verticalLabelPosition=bottom;verticalAlign=top;align=center;html=1;fontSize=12;fontStyle=0;aspect=fixed;shape=mxgraph.aws4.resourceIcon;resIcon=mxgraph.aws4.dynamodb;" parent="BTk8QfqqS4kLnmVZK8dJ-1" vertex="1">
          <mxGeometry x="636" y="295" width="78" height="78" as="geometry" />
        </mxCell>
        <mxCell id="BTk8QfqqS4kLnmVZK8dJ-51" value="" style="sketch=0;points=[[0,0,0],[0.25,0,0],[0.5,0,0],[0.75,0,0],[1,0,0],[0,1,0],[0.25,1,0],[0.5,1,0],[0.75,1,0],[1,1,0],[0,0.25,0],[0,0.5,0],[0,0.75,0],[1,0.25,0],[1,0.5,0],[1,0.75,0]];outlineConnect=0;fontColor=#232F3E;fillColor=#8C4FFF;strokeColor=#ffffff;dashed=0;verticalLabelPosition=bottom;verticalAlign=top;align=center;html=1;fontSize=12;fontStyle=0;aspect=fixed;shape=mxgraph.aws4.resourceIcon;resIcon=mxgraph.aws4.athena;" vertex="1" parent="BTk8QfqqS4kLnmVZK8dJ-1">
          <mxGeometry x="636" y="180.5" width="78" height="78" as="geometry" />
        </mxCell>
        <mxCell id="BTk8QfqqS4kLnmVZK8dJ-52" value="5a" style="ellipse;whiteSpace=wrap;html=1;aspect=fixed;rotation=0;gradientColor=#223548;strokeColor=none;gradientDirection=east;fillColor=#5b738b;rounded=0;pointerEvents=0;fontFamily=Helvetica;fontSize=16;fontColor=#FFFFFF;spacingTop=4;spacingBottom=4;spacingLeft=4;spacingRight=4;points=[];fontStyle=1" vertex="1" parent="BTk8QfqqS4kLnmVZK8dJ-1">
          <mxGeometry x="530" y="51" width="29" height="29" as="geometry" />
        </mxCell>
        <mxCell id="BTk8QfqqS4kLnmVZK8dJ-53" value="5" style="ellipse;whiteSpace=wrap;html=1;aspect=fixed;rotation=0;gradientColor=#223548;strokeColor=none;gradientDirection=east;fillColor=#5b738b;rounded=0;pointerEvents=0;fontFamily=Helvetica;fontSize=16;fontColor=#FFFFFF;spacingTop=4;spacingBottom=4;spacingLeft=4;spacingRight=4;points=[];fontStyle=1" vertex="1" parent="BTk8QfqqS4kLnmVZK8dJ-1">
          <mxGeometry x="380" y="143" width="30" height="30" as="geometry" />
        </mxCell>
        <mxCell id="BTk8QfqqS4kLnmVZK8dJ-54" value="" style="edgeStyle=orthogonalEdgeStyle;html=1;endArrow=block;elbow=vertical;startArrow=none;endFill=1;strokeColor=#545B64;rounded=0;entryX=0;entryY=0.5;entryDx=0;entryDy=0;entryPerimeter=0;exitX=1;exitY=0.5;exitDx=0;exitDy=0;exitPerimeter=0;" edge="1" parent="BTk8QfqqS4kLnmVZK8dJ-1" source="j0ipsfvN6_BDUDZTLK3N-9" target="BTk8QfqqS4kLnmVZK8dJ-51">
          <mxGeometry width="100" relative="1" as="geometry">
            <mxPoint x="310" y="125" as="sourcePoint" />
            <mxPoint x="642" y="93" as="targetPoint" />
          </mxGeometry>
        </mxCell>
        <mxCell id="BTk8QfqqS4kLnmVZK8dJ-55" value="5b" style="ellipse;whiteSpace=wrap;html=1;aspect=fixed;rotation=0;gradientColor=#223548;strokeColor=none;gradientDirection=east;fillColor=#5b738b;rounded=0;pointerEvents=0;fontFamily=Helvetica;fontSize=16;fontColor=#FFFFFF;spacingTop=4;spacingBottom=4;spacingLeft=4;spacingRight=4;points=[];fontStyle=1" vertex="1" parent="BTk8QfqqS4kLnmVZK8dJ-1">
          <mxGeometry x="540" y="175.5" width="29" height="29" as="geometry" />
        </mxCell>
        <mxCell id="BTk8QfqqS4kLnmVZK8dJ-56" value="6" style="ellipse;whiteSpace=wrap;html=1;aspect=fixed;rotation=0;gradientColor=#223548;strokeColor=none;gradientDirection=east;fillColor=#5b738b;rounded=0;pointerEvents=0;fontFamily=Helvetica;fontSize=16;fontColor=#FFFFFF;spacingTop=4;spacingBottom=4;spacingLeft=4;spacingRight=4;points=[];fontStyle=1" vertex="1" parent="BTk8QfqqS4kLnmVZK8dJ-1">
          <mxGeometry x="171" y="331" width="29" height="29" as="geometry" />
        </mxCell>
        <mxCell id="BTk8QfqqS4kLnmVZK8dJ-57" value="" style="endArrow=classic;html=1;rounded=0;" edge="1" parent="BTk8QfqqS4kLnmVZK8dJ-1" target="j0ipsfvN6_BDUDZTLK3N-10">
          <mxGeometry width="50" height="50" relative="1" as="geometry">
            <mxPoint x="300" y="335" as="sourcePoint" />
            <mxPoint x="350" y="285" as="targetPoint" />
          </mxGeometry>
        </mxCell>
        <mxCell id="BTk8QfqqS4kLnmVZK8dJ-58" value="7" style="ellipse;whiteSpace=wrap;html=1;aspect=fixed;rotation=0;gradientColor=#223548;strokeColor=none;gradientDirection=east;fillColor=#5b738b;rounded=0;pointerEvents=0;fontFamily=Helvetica;fontSize=16;fontColor=#FFFFFF;spacingTop=4;spacingBottom=4;spacingLeft=4;spacingRight=4;points=[];fontStyle=1" vertex="1" parent="BTk8QfqqS4kLnmVZK8dJ-1">
          <mxGeometry x="430" y="341" width="29" height="29" as="geometry" />
        </mxCell>
        <mxCell id="j0ipsfvN6_BDUDZTLK3N-11" value="AWS DynamoDB" style="text;html=1;align=center;verticalAlign=middle;whiteSpace=wrap;rounded=0;" parent="BTk8QfqqS4kLnmVZK8dJ-1" vertex="1">
          <mxGeometry x="645" y="375" width="60" height="30" as="geometry" />
        </mxCell>
        <mxCell id="BTk8QfqqS4kLnmVZK8dJ-59" value="Amazon Athena" style="text;html=1;align=center;verticalAlign=middle;resizable=0;points=[];autosize=1;strokeColor=none;fillColor=none;" vertex="1" parent="BTk8QfqqS4kLnmVZK8dJ-1">
          <mxGeometry x="619" y="250" width="110" height="30" as="geometry" />
        </mxCell>
        <mxCell id="BTk8QfqqS4kLnmVZK8dJ-6" value="" style="shape=image;verticalLabelPosition=bottom;labelBackgroundColor=default;verticalAlign=top;aspect=fixed;imageAspect=0;image=data:image/png,iVBORw0KGgoAAAANSUhEUgAAAqcAAAKnCAYAAAC75eQEAAAACXBIWXMAAAsTAAALEwEAmpwYAAAAAXNSR0IArs4c6QAAAARnQU1BAACxjwv8YQUAAE5YSURBVHgB7d0HeJxnlfbxW7333psl9y73bsdxOk53QjoBEkJdvt2F3aXtArvAsgssEFhKEkghgSROb07cm9xL3G1JVrOqJUuW1fXN88ZmnWDHRZqZd2b+v+uayIqdS7lsa+aec85zHgkAAACwCT/ZUH9//zjHhzOPmNMfY896AAAA4OI1n36Unf64w/HYbj738/PbLhuxRTh1hNG5jg9zHA/z8UwQBQAAgGus0AeBdakjrK6QG7ktnJ4OpIsdj3tFGAUAALCLMn0QVp9wR1B1aTh1BFITQr/keHxZBFIAAAC7K3M8vuN4rHAE1TK5gEvCKaEUAADA4z3ueHzH2SHVqeGUUAoAAOB1fuJ4/NRZIdVp4dQRTE0o/bYIpQAAAN6mTB9UUR/XIBv0cOoIpbmOD4/pg5P3AAAA8F4rHI/7B7OK6q9BdLpauk0EUwAAAF8w1/HY5siAX9YgGZTK6enZ0m/pg9lSAAAA+J6fOCqoX9EADTicnm7jL3U8xgoAAAC+rMzxmDeQNv+AwunpYLrc8cgVAAAAMMCAetkzp45gaq4ZJZgCAADgbLmOx/LTWfGSXVbl9KxgypooAAAAnEuzPqigbr+U/+iSwymtfAAAAFykMl1ii/+SwinBFAAAAJeoTJcQUC81nJaKYAoAAIBLY1r7JqA2X+gXXvSBKEcw/W8RTAEAAHDpzHmlb13ML7yocHr65icW7AMAAOByfflibpK6YFv/9JypuZKUk/kAAAAYCNPWH/9x86cXUzl9TARTAAAADJzJlI993C/42HDqqJre5/gwVwAAAMDgmPtx7f3ztvVZGwUAAAAnMe39vHOd3v+4yqk5BJUrAAAAYHCZ9v45q6fnrJyerpqWCgAAAHCOc1ZPz1c5/bYAAAAA5zln9fRvKqdUTQEAAOAif1M9PVfldK4AAAAA5/ub6um5KqemaporAAAAwPmaHZXTuDOffKhy6gimc0UwBQAAgOvEns6glo+29e8TAAAA4FqLz/zgQ219WvoAAABwg7+29v9aOaWlDwAAADf5a2v/7Lb+YgEAAADuMdf84+xwOlYAAACAe8wx//jrzKmjlNovAAAAwD2suVOrcurIpeMEAAAAuI+ZOx13pq2fKwAAAMC9/hpOqZwCAADA3QinAAAAsI2YM+E0RgAAAIB7MXMKAAAA24g9E05jBQAAALhXrLXnlB2nAAAAsAN/AQAAADZBOAUAAIBtEE4BAABgG4RTAAAA2AbhFAAAALZBOAUAAIBtEE4BAABgG4RTAAAA2AbhFAAAALZBOAUAAIBtEE4BAABgG4RTAAAA2AbhFAAAALZBOAUAAIBtEE4BAABgG4RTAAAA2Abh1MkObmoUAAAALg7h1Mme+Np2/fGfd6ix6pQAAADw8QIFp9u/ocGqoE6/OUtzP5mn0Eh+2wEAAM6FyqmL9PX2a81zR/WT+9Zr8+vV1ucAAAD4MMKpi7Ud79LSH+/Vow+X6PCWJvX3EVIBAADO8DP/6HcQnOJfFrz7sT9fOClBVz5YoLQhUQIAAPB1DD+6mZlFPbKtSZOvz9S8u/MUHhMkAAAAX0Vb3wZ6e/q1/sUK/eT+9Vr/QoV6uilkAwAA30Q4tZH2lm699osD+vUjJTq0uUlMWwAAAF/DzKmTXWjm9OMMn5GoRQ8WKjE7XAAAAL6AmVMb27u2QaU7mq3dqMXXpLMfFQAAeD3a+jbX0dajd35/WE/803ZHWK1XXw9FbgAA4L1o6zvZQNr6HxUSHqiiyQmatSTHWj3l5ycAAACvQp/Yg3S292jXilqV7jyuiVela+riTEUlhAgAAMBbUDl1ssGsnJ7Nz1E2TcwM1/RbszR2QZqCQ5nQAAAAno9w6mTOCqdnBAb5K2tktObemae8cXHyD6DXDwAAPBdtfQ/X092n0u3Nqj64S8OnJ1nzqMk5EcyjAgAAj0Q49RKdJ3u0/Z0aHShp0Pgr0zTrthxFxgcLAADAkzCo6GXMLVNr/3xUv3y4RBtfrlRPV58AAAA8BeHUS51o6NSrPzug335liw5vbVJ/H2PFAADA/jgQ5WTOPhB1McwhqVGzk7XgvnwlZHIVKgAAsC9mTn1AX2+/di6v1f6NDZp2U5Zm3JyjsGj+6AEAgP3Q1vchne29WvFkmX75uRLr8FQvV6ECAACboa3vZHZo65+LWeKfMzpGVzxQoJxRMdbnAAAA7kbl1EeZ9yNlO5v1+N9v04v/uVfHazoEAADgboRTH2eW+G99s0aPPlKiVc+UqetUrwAAANyFcAqL2Y/69m8P69HPlWj3qjr1MY8KAADcgJlTJ7PrzOnHMfOnQybG68oHhyh1SCRXoQIAAJdhnxD+hnmvcnBzo0p3NWvClamad3eeohJCBAAA4GyEU5xXT2evSl6p0p619Zp0bYam35SlsOggAQAAOAszp7igtqYuLf9jqX71hc3avqxGPV19AgAAcAbCKS5aY2W7XvjBXv3lP95X1YETYlIZAAAMNtr6uCR9ff16f1WdI5y2avyVaZq4KF0xKcyjAgCAwcFpfSfzxNP6F8s/wE+pBVGaujhTI2YkKTSS9zoAAGBgCKdO5s3h9IygkADlj4/V9JuzlTc2zgqtAAAAl4NSFwasu7NX+zc0qnLfCY2claLJN2QoNT9SAAAAl4pwikFzsrlbm16t1JFtjZp4dYbGXpGm6MRgAQAAXCza+k7mC239cwkI9FN6UbSm3ZSlYVMTFRwWIAAAgAuhcgqn6O3pV8WeFtWVndSeSfGa8olM5YyKZR4VAAB8LMIpnKqzvUe7V9bp6PstGjXng3nUxMxwAQAAnAvhFC5xoqFT61+o0OGtTZp4dbrGzk9VRBxXoQIAgA9j5tTJfHXm9OMEBPo7WvwxmnRdhobPSFJgMBeVAQCAD1A5hcv19vTpyPbjKtvVrIIJ8Zp3d56yRsTIj3FUAAB8HuEUbtPX26+DmxqtedRxV6Rq5m3ZiksLEwAA8F2EU7idOTS18eVK7dvQoOk3Z2nConSFRfFXEwAAX8TMqZMxc3pp/By9/YyhUZpzZ64KJyUwjwoAgI8hnDoZ4fTymFBqwqmZR00vjBIAAPAN9E5hSz1dfdq7tl5lO49r4lUZmnZjlmJSQgQAALwbPVPY2qnWHq35c7l++9Ut2vRqlTrbewUAALwXbX0no60/eMw8ataIaM2/J1/54+O4ChUAAC9EOHUywungCwoJ0IhZSZp9e45S8iMFAAC8BzOn8Djdnb3aseyYDm1u0qRrMzR1caYi44MFAAA8HzOn8Fgnm7u04qlSPfYPW7V/Y4N6e2gAAADg6Qin8Hi1pSf19Dd36sX/3Kv68nYxpAIAgOeirQ+vYKqm29+p0Z41dZp4VZpmLclVdCKrpwAA8DRUTuFVuk71av2LlfrV5zdp40uV1ucAAMBzEE7hlU7Ud+qVn+3X77+6RQdLGtXXS68fAABPwCopJ2OVlPsFBPpr+Iwkzb8nT0k5EfJjPSoAALbFzCm8Xm9Pn3avrNWhLY2adF2GZt6ao4jYIAEAAPuhrQ+f0dHWo9V/Ktevv7hJW96sVndHnwAAgL3Q1ncy2vr2ZK5CzRkVrSseGOL4GCM/f3r9AADYAeHUyQin9hYY7K9Rs5M17558JWSECQAAuBczp/BpPV192r7smA6UNGr6zdma8olMhUXxbQEAgLswcwo4tJ/o1rLHDlvzqDuX16qnm2YCAADuQFvfyWjrex4zjzqkOF7z781T5rBo63MAAOAa9C+BjzDv1Q5ualTZzmaNW5iqOUtyFZsWKgAA4HxUTp2MyqnnC4sKsmZRp9+UpfAY9qMCAOBMzJwCF3CqtVsrnizVo49s0ta3atTXw3s5AACchcqpk1E59S5m/jR7VIwWfipfOaPiuAoVAIBBRuUUuATmfVz5rmY9/vfb9eKP9uj4sQ4BAIDBQzgFLkNPd5/V4v/lQxu14qkydbb3CgAADBzhFBiAU609Wvb7w/rVI5u0e2Wt+nqZkAEAYCCYOXUyZk59h7+/n/LGx2nhpwqUURTNPCoAAJeBPafAIOnr69fhLU06+n6LptyQqfn35Ck4LEAAAODi0dYHBll3R6/WPFeuRx/epD2r60RfAgCAi0db38lo6/s2s3qqYEKcFn2mUGlDIgUAAD4elVPAicz7vkOOVv+vv7BJr/78gE4e7xYAADg/wingAj1dfdrwYoV+9uB6rX+hwvocAAD8Ldr6TkZbH+eSmBWuBffla9TsZPn5c6wfAIAzCKdORjjF+ZhVUzmjYnXVQ0OUOSxGAACAtj7gNuYtYdmuZv3mS1u19L/2qaW+UwAA+DrCKeBmvT192vxalX7xmY1a+5cK9XQyjwoA8F2EU8Am2k90641HD+jnn92oPWvrBQCALyKcAjbTUNGuZ761S3/4+nbVlp0UAAC+hOtLARsyZxQPlDTqyLbjKr42Q/PvzlN4bJAAAPB2VE4BG+vp7tOGpRX62ac3aONLVertYbEGAMC7EU4BD9DW1KVXfrZPjz5SooObGgUAgLdiz6mTsecUg80/wE/DpiXpygeHKDErTAAAeBNmTgEP09fbrz1r6nRoS6Om35ilWUtyFBLBtzIAwDvQ1gc8VNepXq14ukw/e3CDtrxRrf4+GiAAAM9HOAU8XEtdp5b+eK9++5UtrJ4CAHg8wingBczUeNWBVlXtPyEAADwZ4RQAAAC2QTgFAACAbRBOAQAAYBuEUwAAANgG4RQAAAC2QTgFAACAbRBOAQAAYBuEUwAAANgG4RQAAAC2QTgF8CHvPVGqij0tAgB82InGTr32iwOCcwUKAM5SuqNJa/9yVGPnp2jOJ3MVkxwqAPBlXad6tfWtGq15rlwtdZ269pEiwXkIpwD+Rmd7j0perdLe9fWadF2GJl2boaiEEAGArzlQ0qhljx3WscNt6uvtF5yPcArgvFobu7T8D2XavaJOM27N1uj5qQoOYRoIgPerK2/Xu45QeqCkQd2dfYLrEE4BfKz+/n7Hk/RJvfKz/dq+rEZz78xT3rg4+Qf4CQC8TWPVKW18uVLb3q7WqRM9gusRTgFclJ6uPpVub1b1wV0aNSdFM27JUlJ2hPzIqAC8wKnWHm15o1obllZYc6XmjTncg3AK4JJ0nuzRVscT+KHNDZp8faY1jxoeEyQA8ES9Pf3at7ZOq587qupDberroYXvboRTAJfMVBRMZeHdx49o1/JazVqSo5GzkhUYzDwqAM9gCqNV+09o5VNlOrS1Sd0dvYI9EE4BXDZzcvXYkTYt/fFe7XzvmGbfkavskTGOVj+9fgD21ex4c73++aPa/u4xnTzeJdgL4RTAgJmTrPs3NOronhaNmZuq6bdkKyEjTABgJ13tH+wr3fBShRorTzFXalOEUwCDxpxsLXmlSgc2NWrKJzJVfFW6QqN4mgHgXqbLc2hzk1Y8VaqqA63q7Wau1M541QAwqEwl4njNKb3928PataJWc5bkaui0RAUE0uoH4GKOwqgZPVr1p3Lt39hgHeiE/RFOATiFOfFate+E/vKD91U4KUGzbs9RxtAo5lEBuERrY6c2vlRprYdqbWKu1JMQTgE4lbmT+v1VdSrfeVzjF6Vr6o1ZikniKlQAztHd0aedy2u19s/laqhoV18fc6WehnAKwCXamru15rmj2ruuXlNuyNTEq9MVHBYgABgMZq60bFezVj1dZn00F4fAMxFOAbiMmUc1lYzXfnFAO5bV6KqHCpU9MparUAEMSHtLt5Y9fsRaadfRxlyppyOcAnCLyv2tevIbOzVmXoqm35ythMxwrkIFcEnMhpADmxu0/IlSNVaxGspbEE4BuI2pcFirp0oarVnUCQvTFB7LVagAPl5Pt1kN1ahVz5Spct8Jq6UP70E4BeB2zbUdevt/D/31KtShUxIVFMJVqAA+zFRGaw6d1OrnyrV/Xb26uHLUKxFOAdiCOVFr7rl+/j/2qHBSvBVSM4qimUcFYGmp71TJyxXa/Hq1TjZ3C96LcArAVro7e7VnTb112nbClWmasjhLcamhAuCbzOL8XStrte75CtWXtzNX6gMIpwBsyZy+XfsXs3qqQdNuztLY+akK4ypUwGf09vSrdPtxrXG08I/saLYu9oBv4JkegG2ZAkljVbte/8UBa0XMnDtyVTAxQYFBtPoBb2W+7+tKTzoqpUe1e1WtOtuZK/U1hFMAtmdO4h7d3aJn/223hk5L1Ow7cpSaH8lVqICXaWvq0ubXq7Tp1SprxhS+iXAKwGOYk7nmRH/pjuMqviZdk67L5CpUwAt0O763319dr7V/KdexwyeZK/VxhFMAHsdUV1Y+VWYdnJp+c5ZGz01RSDhPZ4Cnsboi77do9Z/KdHjrcfV0M1cKwikAD2XNpZWd1Cs/PaDdK+o09ROZyp8Qr+CwAAGwN/P921R9SutfOKrty7hyFB9GOAXg0Xp7+nRoS5Mq9p5Q0eQETXGE1JzRsVyFCthUe3O3tr5drY0vVer4sQ4BH0U4BeAVOtt7tGtFrcrfb9aoOSmafH2GEjPDBcAeujv7dLCkUascLfzqA63WxRvAuRBOAXiVE/WdWv98hQ47qqmTrsvQmHkpCo8JEgD36HeE0PL3W/TuY4dVua/VumgD+DiEUwBex5z0rS1t05u/Oqg9q+usJf6FxQkKDPYXANdpqunQiidLrT3FPV0cdsLFIZwC8Frm5O+R7cdVc7hNQ6cmauriTGUMjWYeFXCyjpM92vRKlVY/V27d9gZcCsIpAK93qrVb29+pUdmu49Y1qMWOdn9cSqgADK6e7n7tX1+vd584Ym3TAC4H4RSAz2g+1qHVz5br4KZGTf5EpkbOTFZYFE+DwECZUZrqg23WXOnBTU0s0ceA8KwMwKeYpd/VB1v12v8c0J5VdZp2U5byx8crIJBeP3A5Wmo7rPb9ljdqOOyEQUE4BeCTzIvogZJGVe0/oWEzkjTtxiyl5kcKwMUx69u2vnnMWg3V2tgpYLAQTgH4tJMt3dr6RrXKdhzXdEcVddyVaVyFCnyMvp5+VTje1L39m4Mq39UiYLDxDAzA55nxuMaqU3rtlwe1b2Oj5izJVdbIGFr9wFnM98nxmlMqeblSm9+sVkcrV47COQinAHCamUc1N9iU727RhCtTNXVxlhIyw+TH7in4uFMnerRzeY3W/LnCCqiAMxFOAeAjutp7tGFppePFuE7F16Zb7f7IuGABvsZcOXpk23Gt/FOZKhxv2jiFD1cgnALAebS3dGnV02XavbJWcz+Zp1GzkxUcFiDA25kuQl15m1Y9U649q+utCy0AVyGcAsAFNFWd0gs/3KNtb9VowX35yh4RI3/mUeGFTGG0ua5Dq59xvClbVcftTnALwikAXKTSHcf12N9v1dgrUjXnjlzFZ4RzFSq8hrlydMvr1dbO0ramLgHuQjgFgEvQ29OvrW/WaN+GBs24KVuTr89UWDRPpfBcPV19Orz1uJY9dkg1h9oEuBvPqABwGdqbu/XO7w9r+7vHNO/ufI2YnqjAEH8BnqK/r1+1pSf17hOHtW99o/U5YAeEUwAYgPryk3ruu7tUNDnBmkdNGxIl/wB6/bC31sYurXG07ze9VqWuU1w5CnshnALAIDBXoZqZ1PFXpmn2HbmKSQ5lHhW2Y64c3fFurbWFwhx8AuyIcAoAg8TshCx5pUr71jVoxq3ZmnhNukIjeJqF+5lZ6bKdzXr7d4dUte+EADvjWRMABtmJxk698auD2r6sRlfcP0QFE+IUGMw8KlzPLM2vP9quFU+WateKOuZK4REIpwDgJObk85Pf2KFh0xK04N4CpeRHcBUqXKbteJc2vFSpjUsrdKq1R4CnIJwCgBOZStXetQ3Wqp7JN2Rqxs3ZikrgKlQ4T3dHn95fU6f3/nDEukAC8DSEUwBwAXMies2z5dq9vFbTbsrSxKvSFRrFUzAGT19Pv47uadHyP5Tq8LYmAZ6KZ0YAcCFzQtrMo255s1rz7813tPyTFBhEqx+Xz7py9NgpLX+yVDuWHbMOPwGejHAKAG5QV3ZSz/7rbg0pjteC+/KUMTSaeVRcMrOvtOSlCm18rcq6GALwBoRTAHATc5L64KZGle9utvajzro9R7EpoQIupLujV9vfrbVO4bewrxRehnAKAG5m5lE3vlSpvevqNeu2HE24Kl0h4QECPqqvt9+67OHdx45Y86WANyKcAoBNnKjv1Gu/OKBt79Ro/t35KpqSwFWosJi50oajJ7X8yTLtWVOnnq4+Ad6KcAoANlN9oFVPf3unRsxM1vVfKFJEHKunfJk5hb/2+aNa9Uy5TrUyVwrvRzgFABsy7dvdK2t1ZHuT5t2Vp0nXZ3Kq39c4qqVlu5r15q8PqpIrR+FDCKcAYGPtLd1Wq3/rm9Va9JlCFUyM41S/DzCHnN781SG9v7pOfVw5Ch9DOAUAD1BzuE2P/+M2DZ+RqEUPFioxO1zwPp3tvVr7l6Na81y5dVAO8EWEUwDwIGeuQp1yQ6ZmL8lVWDRP497AjHGYg05v/+aQmmpYDQXfxrMaAHgYU1Fb/Wy5drx7TAs/VaCx81PlH0ir3yM5OvaVB044WvgHVbazWQAIpwDgsU40dOr5H+yxdqRecX++CiYmiHFUz2FWh5krR7e+VaPeblZDAWcQTgHAw5mT3E98bYcKJ8Vbh6ZS8iIE+zI7Ste/WKFVz5TpVGuPAHwY4RQAvIC5CvVASaOObD+u4mszNO+TeYqICxLso7fng7nS9544ovqj7QJwboRTAPAipiq3wVGV272iVvPvzdeERWkKDPYX3Kt8d7M1V1qxl32lwIUQTgHAC7Ud79LLP9mnza9VadGnhyh/QjzzqG5wvLZD7/7+sHYur7VO5AO4MMIpAHix6oOteuLr2zV8RpIW3l/AflQXMRsV1j1foTV/LldHG3OlwKUgnAKAlzMVu/dX1elgSaOm35ytmbdlKzSSp39nsK6ddfxeL3vssJqqTgnApePZCQB8RFdHr1Y8Vapt71RrwX0FGrsgVQHsRx00ZmvCO787pCPbmq0DagAuD+EUAHxMS12nXvjhHm15vVpXPlignNGxwuVra+qyKqXblx2zDqQBGBjCKQD4KHOC/Hdf3arR81KsedTY1FDh4nV39qnklUqtfLpM7S3dAjA4CKcA4MPMjOQOR8Vv/4YGzbw1R9NvzlJwWIBwfqZjb+Z33/zfg6orOykAg4twCgCwTpSb1vTWtxyt/k8P0YgZSfIPYB71o2odYfStXx/UwU1NzJUCTkI4BQD8VVP1KT37r7uVPz5O8+/NU84o5lEN07Y37fuSV6vU3dErAM5DOAUAfIipCB7e2qTSHcc1YmayrnxwiOLTfXMe1RxwMtXk9/5Qah18AuB8hFMAwDlZOztX1upASYOm35ilWUtyFBLhGy8b/X39OrL9uN7+3WFV7ePKUcCVCKcAgI9lbjta4Whpb1t2zFo9NWZeivz8vXceteZwq976X7Ov9DhXjgJuQDgFAFyUlroOvfif+7RvfYMW3JPvdVehmkNhZqZ07V+O6uRxWviAuxBOneymfxyhFX8stQ4ZAICn6+nq1a7ltTq0pUlTP5Gp6TdlKSw6SJ7MVEdN4H73scOqK2/nFD7gZoRTJ5twZZoKixO0/sUKlbxUqY6TPQIAT3fqRLeWO95473QEVXOqf+TMZAUG+8vTmCtH33viiBW2aeED9kA4dYGo+GAtfCBf4xakWvda71pRZw3bA4Cna6xs1/P/sUdbxlQ7Qmq+tXrKzwPGUU/Ud2rVs+Xa9la1OttZDQXYCeHURfwcz9bJuRG6+R9HavyV6Vr2OCdAAXgHU3E0h4cq9m7X2AUpmnNHnuLS7Ll6yhzu2vJGtRVMWxs6BcB+CKcuFhDop8JJ8coeGa29a+u15rmjqi1tEyNOADydWU6/+bVq7V3XoBm3ZGvydRkKjbTHy4wJ0Ac3NVqjCFX7W5krBWyMcOomIeGBGrcwTQUT4rXJ8WRe8mql2ho5HQrA85mT7u/89rB2vFOjBffla9h0916FWld2Uu8+fkT7NzSop7tPAOyNcOpmUQkhmndXrkbNSdbaPx/Vrvdq1dXJ/BMAz2Yqk+Ye+j/9224NmRivKx7IV3phtFypzRGSzfPqpter1NHKYVTAUxBObcAss07OidD1XxyqMXNTtfJPpSrb2eJoQ/EOH4BnM+30AyWNKt/dogmL0jTj1hzFpoTImcyVozvePaaVT5WqqaZDADwL4dRGzBqWguI4ZQyL0q4VtVr3l6Oqr2gXAHi6zvYea6WeCY3TbsrS1MVZCosa3JcgM0Zauv24lj12WBV7TjBXCngowqkNmQMExddmqGhygkpeqdKm16rU3tItAPB07Se69d4TpdYi/9l35Gj0vFTroOhAmZVWy58s1e6VdVblFIDnIpzalNkTGJMcah0mGDU72Vp7sndNPcP8ADyeqWjWlZ/Uiz/ep7JdLVr8d8M0EOYU/gs/2qvWRlZDAd7A867z8DHmhGtaYZRu+vsRuuPbY5Q9OtbamQoAnq7X8Wa7sfKkBqq1qUunWukuAd6CyqmHCArx19CpCcoaEaMdy2q07oUKHa85JQAAAG9COPUw4dGBmnpjliOoJmrDS5Xa+ma1OtpYkQIAALwDbX0PZLr68elhWvTpIbrn++M0fGaSAoL4owQAAJ6PROPBzAnX7JExuvVrI3XL10YovTBKjKMCAABPRlvfCwSHBWj03BTljonT9ndqtP7FSp2oZ/E0AADwPFROvUhUfLBm3patz/9qsmbckq3g0AABAAB4EsKplzFrpsJjg3T1w4V66OfFGjotUf4B/DEDAADPQGrxYsl5kbrrX8fok/86Win5EcyjAgAA22Pm1Mv5+ftZa6eScyKs1VPb3q7hKlQAAGBbVE59RFzaB6un7v7uOI2YmaygEOZRAQCA/RBOfYi5CjVrRLRu/acPVk9lDo2Svz+9fgAAYB+09X2QuQp15Oxka/WUafNvWFqh5lpWTwEAAPejcurDImKDNPPWbN33g/GafF2GQiN5rwIAANyLcOrrHF39xKxwXffFobrr38aqaEoiV6ECAAC3oVQGi5lHzR0Ta12B+v6aeq3781EdO9Km/v5+AQAAuArhFB9irkIdvzBVhRPjtem1Km16tUonGjoFAADgCoRTnFNkfLDm3pWn4TOStP6FCu1bX6+TzexHBQAAzsVwIc7L3CiVmh+pG748TEu+McY64R8Uyn5UAADgPFROcUEBgX7KG2fmUSO1v6RRG5dW6Oj7J5hHBQAAg45wiosWEhGoMfNSlD0yRrveq9Wm16vUVHVKAAAAg4VwiksWmxyqmbfnqGhygnVoase7x3SqtUcAAAADxcwpLouZR03Jj9RVny3Ukm+M1tApiQoM5q8TAAAYGCqnGBATSAsmxiu9KEp719Zrw0uVqjnIflQAAHB5CKcYFGFRQZqwKF15Y+O0Y5mZR61USx37UQEAwKUhnGLwOFr9cWlhmn1njgonx2vj0krtWVevjjbmUQEAwMVhSBCDzlyFmjE0Wtd/eZhu/aeRKixOsP4dAADAhVA5hdMEhfhbB6UyhsZoz+palbxcpWNH2gQAAHA+hFM4XWRskCZfl6n88fHa8ka1tr9To9bGLgEAAHwUbX24hqOrn5gZroX3F+jOb4/RmPmpCuYqVAAA8BFUTuFS/oF+yhoRo5TcSO2ZHK9Vz5Sr/mg7q6cAAICFcAq3CA4P0LiFaRo6NUkbllZo40uVajtOqx8AAF9HWx9uFRYVqHl35+nB/56osVekKiiUv5IAAPgykgBsITErXLd+faTu+u5YZY+MYfUUAAA+irY+bKVgfLxyR8dp29s1Wvl0mZqPdTCPCgCAD6FyCtsJCPRT8TXpevgXxZp5W7ZCo3gPBQCAryCcwrbCY4K16DND9On/KtbI2cnWUn8AAODdeLWH7aXkR+iOb43W7d8YrfSiKOZRAQDwYvRL4TGGTUtU/rg4bX3rg3nU1sZOAQAA70LlFB4lOCxAUxdn6uFHJ1kfQyJ4fwUAgDchnMIjRSeE6LovDNUDP56gwuJ4BQbxVxkAAG/AKzo8WkZhlO759/G69Z9HKTk3Qn5+zKMCAODJ6InC4/k53mKNnJVkVVA3v16l9S9U6PixDgEAAM9D5RRew8yjTr85W5/9+STNuj1HocyjAgDgcQin8DqRcR/sR/3UjydqhKOiyjwqAACeg1dteK20wkgt+cZo3fHt0UovjGIeFQAAD0DfE17NLOwfOjVReWPjtOWNaq16tlytDexHBQDArqicwieYedRpN2Xp4Z9P0pRPZCo4NEAAAMB+CKfwKdFJIbr+ix/sRy2aksBVqAAA2AzhFD4pc1i07vq3sbrN7EfNYT8qAAB2wcwpfJapmo6ak6whE+NV8mqV1v6lXCePdwsAALgPlVP4vNDIQM1ekqPP/nSShk1PpIoKAIAbEU6B0+IzwvTJ74zR7d8cpbj0MAEAANejrQ+cxc/f0eqfnayiSQla/2KFVj1Tps72XgEAANegcgqcg1k9NefOXH3p99NUfF2GAoP5VgEAwBV4xQU+hlk9tfgrw/Two5NVNDmBeVQAAJyMcApchJTcCN39/XG68zujrdVTAADAOZg5BS6SKZoOn5GkIcUJKnmlUiufLlN7C6unAAAYTFROgUsUFOKvGbdk6/O/nqLia9KZRwUAYBDxqgpcJmse9avD9eB/T1T++DgBAICBI5wCA2SuQr3vB+N127+MsnalAgCAy0c4BQaBuQp1zLwUPfKrKZp/T55CIhjnBgDgchBOgUEUEh6g+ffm6/O/maJxV6RaoRUAAFw8wingBHEpobrl6yN1/4/GK2t4tAAAwMUhnAJOlDc2Tg/+pFg3/cMIxSSHCgAAfDzCKeBkAYF+mrAoTY/8arJmL8mxrkYFAADnRjgFXCQ8JkhXfnqIHvrFJI2enyp/f+ZRAQD4KMIp4GLm+tPb/2mkPvPzYuWOiRUAAPg/hFPAHRxF08yh0XrgPyfoVkdQjWUeFQAAC+EUcCOzamrsglR94XdTrRVUzKMCAHwd4RSwAWs/6j15+sJvpmj0nBTmUQEAPotwCthIXFqYbv/GKN3vaPdnFLEfFQDgewingN34mf2osfrM/xRr8d8NU3RiiAAA8BWEU8CmzH7Uiddk6L4fjtcoR6s/IIhvVwCA9+PVDrAxP78PVk/d9s8jdc93xypreIwAAPBmgQJge+ZUf0FxvLJHxWjr28e06pkytdR1CAAAb0PlFPAgQaEBmnJDhh76+STNuCVbwaGsngIAeBfCKeCBohKCddVDhXrwJxM1bHqSVVkFAMAb0NYHPJSZR00vjNKd3xqt/SUNjlZ/uQAA8HSEU8DD+Qf6abijepo/Ll693X0CAMCTEU4BL2FumZKYQQUAeDZmTgEAAGAbhFMAAADYBuEUAAAAtkE4BQAAgG0QTgEAAGAbhFMAAADYBuEUAAAAtkE4BQAAgG0QTgF8SEJ6uAAA5xadECI4FzdEAfiQax4pUvaYWK34Y6maqk8JACAFhwVo4lXpmrUkR3AuwimADzFPwBOuTFNhcYLWv1ihza9Vqb2lWwDgi/z8/VQ0JUEL7slT2pAo63M4F+EUwDlFxQdr4QP5VlBdv7RC296qUdepXgGAr0jJi9AV9w9xvFmPV2AIk5CuQjgFcF5+fn5KzArXNQ8XafScFK18pkyHtxxXX2+fAMBbxaaGasr1mSq+NkNhUUQlV+N3HMAFBQT6KXdMrOLThmvbOzXa8ka1jtecUn+/AMBr+Af4aZTjjfjsO3IcVdNIxxt0wQ0IpwAuWnRSiObcmauiSQna8FKl9q6vV3sz86gAPF/WiGgtuK9A+ePirJAK9yGcArhkaYVRuuHLwzR6borW/uWoynY2q7uTeVQAnicmOUTz7srXmAWpCg5lrtQOCKcALotp9Q8pjlfG0Ci9v6peJa9U6tiRk8yjAvAIZjPJpGszNOv2HEXGBwv2QTgFMCBhUUEqvjZdQybGa9NrVdr57jEdr+0QANiRadkPnZqo+ffkKbUgirlSGyKcAhgU5nTrFQ8UaPjMJG1YWql96+rV0dYjALCL9MIoK5QWTk60uj+wJ8IpgEFjKhCZQ6O1+CvDdGCGCakVOrq7RT3dtPoBuI/Z2zzT0b6feHW6QiOIPnbHnxCAQRcY7K8Rjgpq7uhY7Vxeq02vVKquvF397J4C4ELmuWjiNemadXuuYpNDBM9AOAXgNOExQZq6ONM6OLXplSrtWlGrEw2dAgBnMheIFEyM0xX3F1iHNv0YLPUohFMATpeYGa6rHirUcEerf+NLlTqwqVGdJ5lHBTD4krIjdMV9+Ro6PVGBQayG8kSEUwAuYQoX5pYpcyDh8NYmbXy5UqU7mtXLPCqAQRAeHaQZt2Zr8vWZXDnq4fjTA+BSZregqaDmj49ztPnrtO4vR1V/9CRXoQK4LGau1FwIMveTuUpwdGng+QinANwiJDxQxdekq7A4Xptfq1bJa1U6ebxLAHAxTCgtmpyg6TdnK3tkDFeOehHCKQC3ikkO1fz78q3T/aufK9e+dQ3q6uAqVADn5u/vp7TCSM28LVfDpiUqKIS5Um9DOAXgdmYeNa0wSjf9wwgd2dKklc+Uq2LvCa5CBfAh5s3stBuzNP7KNEXEBgneiXAK4ENKXqmy5kET3TC7ZU7WFk1NVJajRbfj3Vqtf+GomqpPMY8K+LjQyECNmZfqaOFnWXOlbIbyboRTAB+ya/kxLf9jqVWdMDOhZlepq4VFfbAfdeiUBG14qVLb3q5Re0u3APiWgEB/a1/p7CW5zJX6EMIpgL/R2tipt397yAqq02/J0tDJSQp3QwstLi1Miz49RKNmp2j1s+U6uKlR3Z3MowLezizNT82P0PRbszVyZrK15QO+g3AK4LxqDrdp6Y/3K29craOSmm21+119+MBUSrJGROvWfxqpAxsbtPpPZao+2Ka+Pnr9gDeKTgrRpGszrEdkfLDgewinAD5Wb0+fDm1uUuW+Exo+I9EKqan5kS5vr5lQPHJ2snLHxFlt/g1LK9Rc2yEA3sFUR82+0mk3ZSklL4IrR30Y4RTARelo69G2t45ZtzpNvDpD4xakKjY11OUHE8wJ3ZmOVp9ZIWMW+O9cUWv9vwHwTP6B/soZFaPZt+cof0K8AgIJpb6OcArgkjQf69B7jx/R4c0NuuKBIdaLip+/i19MHF8uMStc131xqIZMTtCy3x1WXflJAfAcpjIakxyscVekadL1mYpxtPMBg3AK4JL19/erbFeLHv/HbRrlaLXPuzdfCelhcjUzWjBiRpKGjI/XljertfHlSjVWnrL+/wDYV1h0oIomJWrazVnKHBot4GyEUwCXraerT9uXHdOBzY2acVO2Jt+QqbAo1z+tBIcHWHNqI2Ylaf0Lldr2Tg1XoQI2ZGbHM4dFa8YtOSqaksBqKJwT4RTAgLU3d+ud3x/WtmU1mn+PuYo0WYFBrn/RiUkK1aLPDNGoOcnW6qkDJQ3q7uCWKcDdTAhNzolQ8TUZGrcw1VqqD5wPfzsADJqGo+368/fe15BiR0i9N8+qkLj6xK35cubr3vbPo7R3bZ3WPHdU1Yfa1NdDSAVczXz/RyUGa4qjq2JWQ7njUg94HsIpgEFl5j3Nsvyync1WhWTOnbmKTQmVq5kTv6PmpKhgQoK2vlmtDS9Xqrmmg3lUwEVMdXTkrBTNuDVLSdkRXDmKi0Y4BeAU5ianTa9Wad/6Bmv108Sr093SyjMzsDPM6qnpiVr3fIV2Lj+mUydYPQU4S2Cwv7JGxGjeXXnKHRPLXCkuGeEUgFOZq1Df+NVBbV9WowX35qtocqL83bDHMCEjXNd9YajGzEvVqj+V6ci2JkeAptUPDBbTwk/KDrfeDI6en6pgF98mB+9BOAXgEjWH2vT0t3dp6JQEzXVUVNKLol3e5jNfL2d0jO4YOlrvr67T6j+VW/tR+3pp9QMDYa4ZnXhVuqYuzlRUAvtKMTCEUwAuY0Lg3nUNOripSWPmp2jePfmKS3X9PKppO45dkKohExO0+fUqaz9qa0MX86jAJQoJD9DQqUmavSRHKfmRzJViUBBOAbhcT3eftr5V4wiq9Y4WYI6m3Zhlvci5mrkKdc4duRo+I0lr/3xUu1fVqfMk86jAhQQE+itjaLTm3JmjwuIEt4zqwHsRTgG4zanWHi37/WHtWHZMC+7Ls/ajuvzwhOPLmf2Ln/jKMI2el6JVT5fr6J5m64IBAB9m5krjM8IcbygzNWFRuoLDXP+mEt6PcArA7eqPntRz331feeOrtfBTBcpwwzyqCcVDJsYrZ2SsdaLfVFLrj7bT6gdOi3R0GsZekaapi7MUl+b6cRz4DsIpAFvo6+vX4S1NOvp+i8YvTLUOTUUnuv5gRVCov7X2qmhygja/Vq2SVyvV2shVqPBd5nvCvHGbc2eeo5Uf5fKLNeB7CKcAbKW7o1clr1Rpz7oGzVmSo+JrM6z7uF3NnDied0+eJlyVppVPlWnHe8fU2d4rwFeYbkJaYZRm3ZZjzWUHMFcKFyGcArCltsZOvf7LA9r8erWufLBARVMS3FKxiUkO1Q1fGabxi9L0zu+PqHxXs3q5ChVezHyfxaaGavL1GSq+OkNh0UQFuBZ/4wDYlhn3rC1t01Pf3KmhUxN1xf0FSsmLkDuYG2/u/+F47Xi3RqueKWceFV4pNCpQU67P1IxbshQeEyzAHQinAGzP2o+6tl6HtzZp0jXpmn1nnrUGytX8/KVxC9OsvY4bllZo40uVajvOPCo8nxmdKZqSqPl35ysl3z1vAIEzCKcAPEbXqV6tfb5Cu1fXW/d2m6AYGOz6Vn+Yo7o07+48jZ6bouVPlmrPmjp1d9Dqh+cxc6WpBZFWV8IcAgTsgHAKwOO01HXopf/eqy1vmNVT+cobF+eWedTErHDd+vWROrwtTcv/UGptGuAqVHgC8/0SnRSiWbfnaMKiNPaVwlYIpwA8khn3rNjboie+tkMjZydZJ4pT8iLdclNNwfh45Y6O07a3a7Ty6TI1H+tgHhW2FRIRaAXSWUtyFJ3g+nVtwIUQTgF4NHNyfud7tTq09bh1FemU6zMU6IbVU2bNTvE16SqalKC3fnNIO949JsBuUnIjdM0jRSqYEC/ArginALxCe3OX3nj0gDa9WqkrPz1EI2YkyR1Mq/TWfxqpyTdk6PVfHFDVgVYB7hYaGagrHxxivYFy+RXBwCUinALwKg0V7XrmW7tUOCleiz5baFWK3CFnVKwefnSytad12e8Pc6ofbmGCqNlXag48mYAKeAL+pgLwOmbe80BJo45sO65J12Vo/j35blskbipVo2Yna9WfyrXu+aPq6eJUP1zDtO6v+VyR23YDA5eLcArAa/V092n9ixXatbJW8+7KV/G16W65gvGDlmqBJl6dbt16tX9DgwBniU8P07WPFFkXVwCeiHAKwOu1NXXplZ/tc7TYK3XVZwpVMNE9h0ESMsJ09/fGqvz9Zr3z28PWVagc6sdgMW+CZi/J0fSbsxUY7PpDgcBgIZwC8Bk1h9r0xNe3a9i0JOtwSGJWmNwhZ2SsPvXjCdq5vFZvO0Kq2dsKDISpyi98oECR8Vw5Cs9HOAXgU8ySfHOj06EtjZp+Y5a169HsfXQ1P38/jV2QquHTk7TqmTKte6HCugELuFj+jr9DRVMSrDdaybnMlcJ7EE4B+CQTBFc8XaZty2qsA1NmKbkJjK5mbua5wlHxmuCofL39m0OO4NzgCNAcmsLHM2H06ocKVTiJK0fhfQinAHxaS12nlv54r7a8XqWrHipS9sgYuUN8WpiWfHO0jmw/rjd/fVA1B1uZR8XfCI8Jsg73mT267jjcB7gC4RSAzzMh8OieE/rtV7Zo9LwUq00ak+Seax3zx8Xps/8zSVvfqtbyP5bqRH2ngIBAf2st2YJ78xUeGyTAmxFOAeA0M4+6Y9kx7VvXoNl35GjajVlW293VTEVs0rUZGjU7RSueLNXGlyvZj+qj/Pz8VDAhTos+O0RpBVECfAHhFAA+orO9R+/87rA2LK3QgvsKrHlUd1z5GBYVqKsfLlSxI6i+9ZuDOrChUX199Pp9RWJmuK74VIFGzkxyyzw04C6EUwA4j9bGLmsedaMjpF7zSJHyxsbJHZKyw3XXv421lve/9ZtDqis7KXivkPBAzb0rT1NuyHBL5R5wN8IpAFxAzeE2/e7vtmr03BRd+ekhiksNlTuYG3+GFCdo40uVVru//US34D3MOMeY+anW9gZ3zTwDdkA4BYCLtGtFrfauq9fM23I095O5brmFxwSY6Tdnacy8FOvA1OY3qtXbzTyqJ/NzdOyzhsc4qvOFyhzmnm0RgJ0QTgHgEpiDSaZqufXNai1yVFHHXpEqdzA3AV3/paEqvi5dbzx6UKXbzVWozKN6mpjkUF35YIH1ZoO5UuADhFMAuAwnGjr1539/3zo0dd0XhymjyD0nqc0J7vt/OF4HShr1nqOSWrXvhGB/ZpZ0+k1Zmn1HLnOlwEcQTgFgACr2ntCjD5do/JVpViXVHXebm4qbmUctmBBv7Ud97w+lamvqEuzHbH0YMTPZ2qUbn+6e2WXA7ginADAItr1do/dX11mzqNNvznbLPKr5mpOvz7T2o658ukwlr1apu6NXcD+zrzR/fJwWPlCgzOHRAnB+hFMAGCRdp3r19m8Pa/Pr1da958NnJMkdzBWXZj/qhKvT9davD+rgpibmUd0oPj3M2vIwwvH3wR37cgFPQzgFgEHWVH1KT31zp9Vmv+ZzRUrJi5A7pORG6O7vj9OBjQ16638Pqa6c/aiuFBoZqJm35ljbFZgrBS4e4RQAnOTw1iY9/o9bNW1xlqa66SpUs6bIzKNmFEZr5TNl2uKo6nZ10up3JlMdNb/nM27JVubQaAWGuH7EA/BkhFMAcCJzy9Q7vz+i7e8es65CNa1dPzdklciEYF37+SJNNK3+3xxyBOfj6utlP+pgyxgaZc0cF05KVHg0L7HA5eA7BwCczMx7mitH//y93cobG6u5d+dZS9fdMX+YWhCpu783VvvWNejdJw5b/1+Mow5cdFKIpn4iS2MXpFo/9mO0FLhshFMAcJGe7j4d3Nyko3tPaPj0JM1akqPknAiXBxlrndGsJA2ZGK+NL1dq9XPlam/hKtTLERwaYF3EMOUTmUrOjpB/IKkUGCjCKQC4WOfJHm1/p8aaSZ18XYYmOR7u2I8aHB5gBWRzn/t7fziiHcuOWQEaF2YCfoEj3M+8NVvZI2IUFMqBJ2CwEE4BwE1aGzu1/MlS7V5dZ4Wc0XNT3LIfNSY5RIu/OtyaR33nd4dUtrOF1VMfw2xfmHFztnXoKSLO9W8qAG9HOAUAN+rr7VftkTa9/JN92rm8VnPuyFHOqFiX37NuRguyR8bo/h9N0O6VtVr2+yNqqjkl/J9IRxA1le5xV6YpLi3UWqwPYPARTgHABro7+3SwpFEVe1s0enaKZt6eo4SMMLmaaVebNn/RpERteq1K6188qhMNvn0Vqqlmj5qTouk3ZSklP1IBzJUCTkU4BQAb6WjtsW6YOri50TpkU3x1hsLcsJIoNCrQmkc1h33MftRtb9aoy8euQjWV0dwxsZpxW7byHB9DwnnJBFyB7zQAsBkz79lc26F3fndYuxyt/tlLcjV8ZpJbKnbRiSG67vNFGr8wTcv/WKqDmxqtUQRvl5AZbs2Vmt/3qHjmSgFXIpwCgE2ZEFh9sFXP/2iPhrwXZ4XUzOHRLp91NF8vc1i07vz2aO3b0KB3HzvitVehmsX5027MtqrWYY7qsatnfwEQTgHA9rod7fS9axt09P0WjbsiTVMXZ1kHclwtIMhfI2clK39cnDV6sObZcp30kv2oZq50xMxkLbgv3y2zvgD+D+EUADzEyeZurXu+wqpeTrkhQ8XXZCg4zPX7NcOigjTr9hwrqK58ukw73j2mni7P3I9qqsLZo6I1/94Ca67UHbd2AfgwwikAeBAzj9pY2a63fnNYu1fWac6duSosTnDLzUTx6WFa/NVh1n7Ut397SOW7PGs/qqk+z74jT+MWpLBEH7ARwikAeKDe7j6rzf/c995X0eQER8jKVWpBpMuvQrUqjyNjdN9/jNfuVXXWpQImPNtZSHiAJl+fqRm3Zlu7SwHYC+EUADxYZ3uPdq2otVZPjZmXonl35ykqIUSuFhjir3ELU62gvP7FCm1YWqlTrfaaRzUt+2HTkjT/vjyl5Lo+yAO4OIRTAPACHW09KnmlSnvW1muOo4o68doMBYe4/irU8Jggzb833wrKpor6/up6q8rrbumFUbri/gINKY5nrhSwOcIpAHiRtqYuvfaLA9ryRrUWPljwwTxqgOuvQk3KidAtXxupiYuOa9njR6ybr9whOilEs27L0YSr0liiD3gIvlMBwAsdO9Kmp/5lp4ZNT7LWIyXnRri8jW1CcYGjUpk9Kkbb363VCkcltaWuQ64QHBqg8Y5AaqrI5iIBAJ6DcAoAXqqvr1971tTp0NZGTXK0+U1QM213VzMn4Sddm65hUxNV8lKFNr5WpfZm58yjmkBcOClB8+7OVcZQ119YAGDgCKcA4OW62nu19s9HrYNT8+/O07iFadbSeVeLSgjW/PsLNOHqdC1/skw7ltVoMJnqsKkSD52apMAgQingqQinAOAjTtR36rVfHNShLU2atSTHOiTk+qtQzX7RMF3/xSIVjI+z1mENVFhkoCZfn6EZt2QrJtn1N2cBGFzWs1K/J21NBuBUv/u7LSrd0Sx4t4jYIGt5vtn3GZvivkDX3dmroJCBLcA3t1O5oxIMwDn4bgYAH2SuQl39p3I98bXt2vxalTpP9sgdBhpMDYIp4F34jgYAH2V6ZvVHT+qVn+3Xk9/cqYObGtXbQyMNgHsxcwoAPs4E0tLtx1W1v1Wj5iRp+s3ZSsmL4KQ7ALcgnAIALF2nerT1zRod2nJcxVenacJVGYpNYUcoANcinAIAPuREfYeW/7HMunrUHJoaOz9VEXGu348KwDcxcwoA+BtmiUttaZve+t9Deva7u7R3Tb11Kh4AnI3KKQDgvHp7+nRk+3FVH2pV0eRETbspS5nDosU4KgBnIZwCAC6oo61HO987pqO7mzX2ilQVX5NuLdMHgMFGOAUAXLTmug5rP+r+kgZNvjZDo+elKiyKlxIAg4eZUwDAJenr69exQ216/dGDeu57u3VgYwPzqAAGDW93AQCXxQRSs7i/6sAJDZ+epCmLM5U+JEoAMBCEUwDAgLS3dGvrm9Uq3XFc4xemacKidMWwHxXAZSKcAgAGzFyF2lR9SsufLNW+DQ2aemOWRsxIUkh4gADgUjBzCgAYNH29/araf0Kv/GSfnvv+bh3e2mT9OwC4WFROAQCDrqujV/vXN6hyb4tGz03VpOvSlZIXKQC4EMIpAMBpTjZ3a+NLFTrkqKBOXJSmsVekKToxWABwPrT1AQBOZeZRG46e1LLHDuupb+7Q1rdq1HWqVwBwLoRTAIBL9PZ8MI+69Md7HSF1p0q3H7eCKwCcjbY+AMClzAEpc1CqYm+LZtySrQX35QsAzqByCgBwC9PaL9t5XABwNsIpAAAAbINwCgAAANsgnAIAAMA2CKcAAACwDcIpAAAAbINwCgAAANsgnAIAAMA2CKcAAACwDcIpAAAAbINwCgAAANsgnAIAAMA2CKcAAACwDcIpAAAAbINwCgAAANsgnAIAAMA2CKcAAACwDcIpAAAAbINwCgAAANsgnAIAAMA2CKcAAACwDcIpAAAAbINwCgAAANsgnAIAAMA2CKcAAACwDcIpAAAAbINwCgAAANsgnAIAAMA2CKcAAACwDcIpAAAAbINwCgAAANsgnAIAAMA2CKcAAACwDcIpAAAAbINwCgAAANsgnAIAAMA2CKcAAACwDcIpAAAAbINwCgAAANsgnAIAAMA2CKcAAACwDcIpAAAAbINwCgAAANsgnAIAAMA2CKcAAACwDcIpAAAAbINwCgAAANsgnAIAAMA2CKcAAACwDcIpAAAAbINwCgAAANsgnAIAAMA2CKcAAACwDcIpAAAAbINwCgAAANsgnAIAAMA2CKcAAACwDcIpAAAAbINwCgAAANsgnAIAAMA2CKcAAACwDcIpAAAAbINwCgAAANsgnAIAAMA2CKcAAACwDcIpAAAAbINwCgAAANsgnAIAAMA2CKcAAACwDcIpAAAAbINwCgAAANsgnAIAAMA2CKcAAACwDcIpAAAAbINwCgAAANsgnAIAAMA2CKcAAACwDcIpAAAAbINwCgAAANsgnAIAAMA2CKcAAACwDcIpAAAAbINwCgAAANsgnAIAAMA2CKcAAACwDcIpAAAAbINwCgAAANsgnAIAAMA2CKcAAACwDcIpgA8JCQ8UAADuQjgF8CHXPlKk4qvTFRwaIAAAXI1wCuBD4tLCtPj/Ddfd3xur/PFx8g/kaQIA4Dr07wCcU964OGWPitWe1XVa/Wy5ag61qb+/XwAAOBPhFMB5BQT6afS8FA2dmqgtb1RrlSOktjZ0CgAAZ6FfB+CCgsMCNO2mLD30P5M0+ROZzKMCAJyGcArgosUkh+iGLw7VAz+eoMJJCfIP8BMAAIOJcArgkmUOi9Zd3x2r2/55pJJzIuTnR0gFAAwOZk4BXBYzjzpqToqGTEzQhpcqtf7Fozp5vFsAAAwElVMAAxIaGai5n8zVZ386SROuSldQKE8rAIDLx6sIgEERnxGmG//fcN377+OUOyZW/v60+gEAl45wCmDQmNHT3DFxuu8H43XTP4xQQnqYAAC4FMycAhh0gcH+GrcwVUWT4rX2hUqVvFKhUyd6BADAhVA5BeA04bHBWvhAvj7z00kaOStZgUE85QAAPh6vFACcLik7XEu+NVqf/Ncxyhoew+opAMB50dYH4BImjxZOTlDu2FjtXF6nNX8qV33FSQEAcDbCKQCXCgoJ0MSr0jRyZpI2LK3Quucr1H6C/agAgA/Q1gfgFtZ+1LvydPf3xyrPUU0FAMAgnAJwKzODev+PJui2fxml2NRQAQB8G+EUgNv5B/hpzLwUfeE3UzX/njyFRDBxBAC+inAKwDZCwgM0/958ff43U6ywakIrAMC3EE4B2E5cSqjV5r//R+Mdbf9oAQB8B+EUgG3ljY3Tp/5rohZ/dbiik0IEAPB+hFMAtmauQi2+Jl2f//UUzbo9R0GhAQIAeC/CKQCPEB4TpEWfGaKHfzlJw2ckccsUAHgpwikAj5KcE6E7vzNG9/7HOCXnRggA4F0IpwA8jimaDimO1+cenaxrP1+kiNggAQC8A+EUgMcy86jTbsyy9qNOvzlbwWHMowKApyOcAvB4kfHBuuZzhY6QOkWj56TI3595VADwVIRTAF4jLi1Mt31jlO774XhlFLEfFQA8EeEUgFcx86j54+P0mf8p1uK/G2ZVVQEAnoNwCsArBQT6qfjaDH3xd1M145ZsBYXwdAcAnoBnawBeLTw6SFc/XKiHfzFZQ6ckCgBgb4RTAD4hOS9Cd31vrO7593FKYT8qANhWoADAR5h51KLJCcofF6eNL1dqxZOlOtXaIwCAfVA5BeBzzH5UM4f6pd9P05RPZCogiKdCALALnpEB+Cxzkv/6LwzVZ35arIKJ8QIAuB/hFIBvc7T6M4ZG6d5/H6cl3xyl+LRQAQDch3AKAA7+AX4aNSdFj/zvVE2/KUtBoVyFCgDuQDgFgLOEhAfo6s8V6v4fTlDRlAT5cRUqALgU4RQAPsLPz0/ZI6N153fG6J7vj1PGMK5CBQBXYZUUAJxHYJC/CifFW0F12zvHtOqpMp1o7BQAwHmonALABYSEB2rqJzL10C8naeriTAWHMY8KAM5COAWAixSdGKJrPlekB/9rgoZOS2QeFQCcgHAKAJfAnOpPL4rWHd8YrSXfHK2UPK5CBYDBxMwpAFyGwBB/jZyVZF2Fuvm1Kq19/qjamroEABgYKqcAMABhUYGaeXuOPvvzYhVfk66AQFr9ADAQhFMAGCA/Rx6NSwnTDV8epk/910QVjOcqVAC4XIRTABgkZh41e2SM7vruGN3y9ZFKzAwTAODSMHMKAIPMXH067opUFU1O0LoXKrRxaYVOtfYIAHBhVE4BwEnCo4O04N48ffqnxRq3MI15VAC4CIRTAHAicxVqck6Ebvx/w3Xvf4xX1ogYAQDOj3AKAC5gqqb54+N03w/G6dZ/Hqm0gkjrIBUA4MOYOQUAFzJXoY6dn6r8sXHa+laNNiytVGtjpwAAH6ByCgBuEJUQotl35OiBH4+39qMGhwQIAEA4BQC3MfOoSVkRuu4LQ3X398apYGK8/AN4Wgbg22jrA4CbBQb7K298rNKLRmvPmnqtfrZM9Ufb1d8vAPA5hFMAsImQiECNuzJN+ePjtfn1Km18uVLtLd0CAF9C/wgAbMSc4I9JDtG8u/P0wI8mWIenTGUVAHwFz3gAYEPmKtTUgkhrP+ot/zhCqfmR1owqAHg72voAYGOBIf4aNTdFaYXR2vxalXYuP6aWOlZPAfBeVE4BwAMkZITpyk8P0ZJvjNYYR6vfzKcCgDfi2Q0APITp6pvrT027f//GRm18sVJH97aot7tPAOAtCKcA4GGCQgI0anay8sbEatvbNdr6Zs3p1VPsngLg+QinAOChImKDNfO2HBVNTtT2d45p27IatTYwjwrAszFzCgAeLjk3QgsfLNC93xtr7UkNDuUqVACei3AKAF7AzKOmDonSjV8drju+NVp5Y+O4ChWAR6KtDwBeJCDQT4WTE6yDUzuX12rd80fVWMlVqAA8B+EUALxQaGSgJl+foSJHUN3wYqW2vlOt9mauQgVgf/R8AMCLxaaEatFnCnTv98dp9Jxk66Q/ANgZ4RQAvJyfv58yhkbr5q+N1C1fH6ms4THMowKwLdr6AOAjAoP9NXJWkrUfdfuyY9qwtEJN1acEAHZCOAUAHxMeE6TpN2Vp6NQErX++Ujveq9Gp1h4BgB3Q1wEAX+QnJWSE65pHCnXXv43T0CmJCgziJQGA+1E5BQAf5h/gp5zRMbq9cJT2rWvQmufKVXOojatQAbgN4RQAYN0qNWZ+ivInxGvzq1Xa9GqlWuq5ChWA6xFOAQB/FRkbpLmfzNWImUmOgFql3atq1drYJQBwFQaMAAAf5icl50bo6ocKteQbozV6XopVWQUAV6ByCgA4J/9AM48aq9SCSB0oadTGpZUq393CPCoApyKcAgA+Vkh4oEbPTVHOyFjtWlFrtfsbKtsFAM5AOAUAXJTopBBNvyVbQ4rjrYC6871atZ/oFgAMJmZOAQAXzc9PSsmL1FUPFer6LxQpvTDKWkcFAIOFyikA4JKZhf2j56dqyKRElbxSqU2vmNVTXcyjAhgwKqcAgMsWFhWoOXfm6t4fTFDxtekKjaTmAWBgCKcAgAFLyg7X9V8cqju/PUZDJiYoKISXFwCXh7e4AIBBYWZP88fHKWt4jHatrNWaZ8vVUNGuvj5a/QAuHuEUADCogkL9NWFRmgqtU/3V2vRalVobuQoVwMWh7wIAcIqohBDNvydP9/9wvMbMT1VIBPUQABdGOAUAOM/pq1Bv+doI3f4vo5Q3JlYBgbz0ADg/3sYCAJzOzKMWTU6wDkvtXlGrFU+Xqr6cW6YA/C3CKQDAZfwDpDELUlQ0LUEbl1bq2KFWAcDZrGs9+tmaDABwg1OtPdauVAA4g3AKAAAA2zgzld4sAAAAwL2aCacAAACwC8IpAAAAbKPsTDjdIQAAAMC9WqicAgAAwC62nwmn2wUAAAC4F+EUAAAAtlHmd+ZH/f39xx0fYgUAAAC4gZ+D/1mfUz0FAACAu6ww/zg7nK4UAAAA4B7W9qizw+kKAQAAAO6x1PzD7+x/w9wpAAAA3KDMz88vz/zA/yM/8YQAAAAA11px5gcfDadLBQAAALjWXwukfh/9GVr7AAAAcKG/tvQN/3P8gp8KAAAAcI3vnP3JuSqnpmpaKqqnAAAAcL48R+W07Mwnf1M5dfxks6ieAgAAwPkePzuYGn7n+lVUTwEAAOACeR8Np+eaOaV6CgAAAGf76UeDqeF3vl9N9RQAAABOUuZ4zDtXOPU/339xunr6HQEAAACD6zvnCqaGny7AUUFd7vgwVwAAAMDArXAE03nn+8mLCae5jg/bRHsfAAAAA2M68+PPVzU1/HUBp/9j2vsAAAAYqO98XDA1Llg5PcNRQf2J48OXBAAAAFw6czr/yxf6RZcSTk1b38yfjhMAAABw8cocwTTvYn7hBdv6Z5w+vX+jPjj6DwAAAFyMMsdj3sX+4ouunJ5x+oCUqaDmCgAAADi/Mp1nn+n5XHI4NRwB1bT2TUDlBD8AAADOxXTdTTDdfin/0UW39c92+ouY8myZAAAAgA8r02UEU+OyKqdn0OIHAADAR5TpElv5Z7usyukZp78oFVQAAAAYOzSAYGoMKJwa5oufXg3wUwEAAMBXmSw4dyDB1BhwOD3j9FLVr+iD4VcAAAD4BpP9vmKy4OnVowMyoJnTczk9h/qY4zFXAAAA8GYrHI/7B1otPdugVU7PON3mN3Oo94tZVAAAAG90plo6bzCDqTHoldOzna6imnb/lwQAAABPZ0KpmS39yWC08M/FqeH0jNMh9duOx70CAACAp3F6KD3DJeH0jNMhda7j8S2xGxUAAMDuXBZKz3BpOD2bI6jOdXy4z/GYI4IqAACAXZgQ+oTjsdQRSFfIxdwWTs92OqgudjzGilP+AAAArmTCqLlmdKXjscIdgfRstginH+UIq+P0QTXVfDSBNfb057GnHwAAALh4zWc9TBBtOf1xuyOMbhcAAACAv/X/AWb125zYCRnlAAAAAElFTkSuQmCC;clipPath=inset(7.67% 12.33% 6% 11%);" vertex="1" parent="1">
          <mxGeometry x="-260" y="663" width="65.72" height="74" as="geometry" />
        </mxCell>
        <mxCell id="BTk8QfqqS4kLnmVZK8dJ-9" value="" style="verticalLabelPosition=bottom;verticalAlign=top;html=1;shape=mxgraph.basic.patternFillRect;fillStyle=diag;step=5;fillStrokeWidth=0.2;fillStrokeColor=#dddddd;fillColor=none;" vertex="1" parent="1">
          <mxGeometry x="-260" y="663" width="780" height="71" as="geometry" />
        </mxCell>
        <mxCell id="BTk8QfqqS4kLnmVZK8dJ-7" value="" style="verticalLabelPosition=bottom;sketch=0;aspect=fixed;html=1;verticalAlign=top;strokeColor=none;align=center;outlineConnect=0;shape=mxgraph.citrix.laptop_1;" vertex="1" parent="1">
          <mxGeometry x="-440" y="660" width="91" height="77" as="geometry" />
        </mxCell>
        <mxCell id="BTk8QfqqS4kLnmVZK8dJ-8" value="" style="endArrow=classic;html=1;rounded=0;" edge="1" parent="1" source="BTk8QfqqS4kLnmVZK8dJ-7">
          <mxGeometry width="50" height="50" relative="1" as="geometry">
            <mxPoint x="-340" y="700" as="sourcePoint" />
            <mxPoint x="-260" y="700" as="targetPoint" />
          </mxGeometry>
        </mxCell>
        <mxCell id="BTk8QfqqS4kLnmVZK8dJ-10" value="1" style="ellipse;whiteSpace=wrap;html=1;aspect=fixed;rotation=0;gradientColor=#223548;strokeColor=none;gradientDirection=east;fillColor=#5b738b;rounded=0;pointerEvents=0;fontFamily=Helvetica;fontSize=16;fontColor=#FFFFFF;spacingTop=4;spacingBottom=4;spacingLeft=4;spacingRight=4;points=[];fontStyle=1" vertex="1" parent="1">
          <mxGeometry x="-428" y="600" width="30" height="30" as="geometry" />
        </mxCell>
        <mxCell id="BTk8QfqqS4kLnmVZK8dJ-11" value="" style="endArrow=classic;html=1;rounded=0;exitX=0.5;exitY=0;exitDx=0;exitDy=0;exitPerimeter=0;" edge="1" parent="1" source="BTk8QfqqS4kLnmVZK8dJ-9" target="BTk8QfqqS4kLnmVZK8dJ-1">
          <mxGeometry width="50" height="50" relative="1" as="geometry">
            <mxPoint x="160" y="660" as="sourcePoint" />
            <mxPoint x="150" y="610" as="targetPoint" />
          </mxGeometry>
        </mxCell>
        <mxCell id="BTk8QfqqS4kLnmVZK8dJ-12" value="terraform apply" style="edgeLabel;html=1;align=center;verticalAlign=middle;resizable=0;points=[];" vertex="1" connectable="0" parent="BTk8QfqqS4kLnmVZK8dJ-11">
          <mxGeometry x="-0.0755" y="-8" relative="1" as="geometry">
            <mxPoint as="offset" />
          </mxGeometry>
        </mxCell>
        <mxCell id="BTk8QfqqS4kLnmVZK8dJ-13" value="" style="verticalLabelPosition=bottom;html=1;verticalAlign=top;align=center;strokeColor=none;fillColor=#00BEF2;shape=mxgraph.azure.git_repository;" vertex="1" parent="1">
          <mxGeometry x="-419.5" y="520" width="50" height="50" as="geometry" />
        </mxCell>
        <mxCell id="BTk8QfqqS4kLnmVZK8dJ-14" value="" style="endArrow=classic;html=1;rounded=0;exitX=0.5;exitY=1;exitDx=0;exitDy=0;exitPerimeter=0;" edge="1" parent="1" source="BTk8QfqqS4kLnmVZK8dJ-13" target="BTk8QfqqS4kLnmVZK8dJ-7">
          <mxGeometry width="50" height="50" relative="1" as="geometry">
            <mxPoint x="-320" y="930" as="sourcePoint" />
            <mxPoint x="-270" y="880" as="targetPoint" />
          </mxGeometry>
        </mxCell>
        <mxCell id="BTk8QfqqS4kLnmVZK8dJ-19" value="3" style="ellipse;whiteSpace=wrap;html=1;aspect=fixed;rotation=0;gradientColor=#223548;strokeColor=none;gradientDirection=east;fillColor=#5b738b;rounded=0;pointerEvents=0;fontFamily=Helvetica;fontSize=16;fontColor=#FFFFFF;spacingTop=4;spacingBottom=4;spacingLeft=4;spacingRight=4;points=[];fontStyle=1" vertex="1" parent="1">
          <mxGeometry x="-310" y="704" width="30" height="30" as="geometry" />
        </mxCell>
        <mxCell id="BTk8QfqqS4kLnmVZK8dJ-21" value="" style="group" vertex="1" connectable="0" parent="1">
          <mxGeometry x="-653" y="639" width="180" height="102" as="geometry" />
        </mxCell>
        <mxCell id="BTk8QfqqS4kLnmVZK8dJ-15" value="2" style="ellipse;whiteSpace=wrap;html=1;aspect=fixed;rotation=0;gradientColor=#223548;strokeColor=none;gradientDirection=east;fillColor=#5b738b;rounded=0;pointerEvents=0;fontFamily=Helvetica;fontSize=16;fontColor=#FFFFFF;spacingTop=4;spacingBottom=4;spacingLeft=4;spacingRight=4;points=[];fontStyle=1" vertex="1" parent="BTk8QfqqS4kLnmVZK8dJ-21">
          <mxGeometry x="138.5" width="30" height="30" as="geometry" />
        </mxCell>
        <mxCell id="BTk8QfqqS4kLnmVZK8dJ-17" value="" style="sketch=0;pointerEvents=1;shadow=0;dashed=0;html=1;strokeColor=none;fillColor=#505050;labelPosition=center;verticalLabelPosition=bottom;verticalAlign=top;outlineConnect=0;align=center;shape=mxgraph.office.concepts.script;" vertex="1" parent="BTk8QfqqS4kLnmVZK8dJ-21">
          <mxGeometry x="127" y="53" width="53" height="49" as="geometry" />
        </mxCell>
        <mxCell id="BTk8QfqqS4kLnmVZK8dJ-18" value="OPTIONAL -&amp;nbsp;&lt;div&gt;Validate/Update&amp;nbsp; config files&amp;nbsp;&lt;/div&gt;&lt;div&gt;f&lt;span style=&quot;background-color: initial;&quot;&gt;or&amp;nbsp;&lt;/span&gt;&lt;/div&gt;&lt;div&gt;data generation&amp;nbsp;&lt;/div&gt;" style="text;html=1;align=center;verticalAlign=middle;resizable=0;points=[];autosize=1;strokeColor=none;fillColor=none;" vertex="1" parent="BTk8QfqqS4kLnmVZK8dJ-21">
          <mxGeometry y="10" width="170" height="70" as="geometry" />
        </mxCell>
        <mxCell id="BTk8QfqqS4kLnmVZK8dJ-23" value="" style="endArrow=classic;html=1;rounded=0;entryX=0.538;entryY=0.39;entryDx=0;entryDy=0;entryPerimeter=0;" edge="1" parent="1" target="BTk8QfqqS4kLnmVZK8dJ-7">
          <mxGeometry width="50" height="50" relative="1" as="geometry">
            <mxPoint x="-470" y="690" as="sourcePoint" />
            <mxPoint x="-420" y="640" as="targetPoint" />
          </mxGeometry>
        </mxCell>
      </root>
    </mxGraphModel>
  </diagram>
</mxfile>
